<?xml version="1.0" standalone="no"?>
<!DOCTYPE svg PUBLIC "-//W3C//DTD SVG 20010904//EN"
 "http://www.w3.org/TR/2001/REC-SVG-20010904/DTD/svg10.dtd">
<svg version="1.0" xmlns="http://www.w3.org/2000/svg"
 width="280.000000pt" height="280.000000pt" viewBox="0 0 280.000000 280.000000"
 preserveAspectRatio="xMidYMid meet">
<metadata>
Created by potrace 1.11, written by Peter Selinger 2001-2013
</metadata>
<g transform="translate(0.000000,280.000000) scale(0.100000,-0.100000)"
fill="#000000" stroke="none">
<path d="M1155 1979 c-22 -16 -44 -40 -49 -52 -5 -12 -18 -42 -28 -65 -29 -65
-195 -483 -203 -510 -6 -20 -4 -23 12 -19 10 3 36 11 58 17 38 11 40 14 42 52
1 22 12 72 24 112 13 39 23 73 24 76 1 3 5 14 10 25 4 11 21 53 37 93 15 40
49 116 75 170 64 132 64 132 50 132 -7 0 -30 -14 -52 -31z"/>
<path d="M875 1712 c-16 -11 -47 -38 -67 -60 -47 -52 -55 -53 -25 -4 26 42 39
72 31 72 -3 0 -32 -16 -65 -36 l-58 -37 -47 -121 c-112 -288 -108 -281 -135
-282 -13 0 -30 4 -36 9 -7 5 -13 7 -13 5 0 -3 -25 0 -55 7 -74 18 -162 11
-218 -15 -56 -27 -139 -124 -166 -195 -25 -65 -22 -155 5 -192 41 -54 70 -68
141 -66 56 1 74 7 127 39 69 42 149 119 220 211 l48 62 67 -26 c87 -34 231
-81 267 -88 104 -19 207 -36 254 -40 30 -4 66 -8 80 -11 129 -22 494 -23 630
0 14 2 48 8 75 12 28 4 55 8 60 10 6 1 28 5 50 9 63 11 194 55 262 87 84 41
127 79 156 137 23 46 24 54 13 112 -12 66 -30 88 -33 40 -4 -52 -56 -134 -140
-218 -41 -42 -64 -56 -119 -73 -38 -11 -82 -22 -99 -25 -29 -4 -65 -10 -114
-20 -44 -9 -195 -18 -296 -18 -126 -1 -250 8 -400 28 -22 3 -58 8 -80 10 -22
3 -62 9 -90 15 -27 5 -61 11 -75 14 -57 9 -237 48 -270 58 -57 17 -160 60
-165 68 -8 13 66 181 77 174 5 -3 33 -7 63 -9 51 -3 57 -1 98 36 31 26 49 54
60 86 29 89 41 214 23 238 -10 13 -15 13 -41 -3z m-13 -94 c-7 -7 -12 -18 -12
-25 0 -25 -40 -119 -62 -144 -13 -14 -35 -33 -49 -43 -25 -16 -69 -29 -69 -21
0 3 12 30 27 62 27 59 139 183 164 183 10 0 10 -3 1 -12z m-459 -433 c83 -27
93 -35 77 -66 -19 -34 -29 -47 -93 -112 -88 -89 -216 -140 -290 -115 -37 13
-60 59 -52 106 6 41 42 139 59 161 41 53 179 65 299 26z"/>
<path d="M1625 1719 c-26 -7 -36 -22 -70 -96 -54 -117 -108 -199 -144 -217
-38 -20 -39 -20 -44 2 -5 23 29 116 64 172 28 45 73 80 104 80 28 0 14 43 -16
51 -81 21 -196 -112 -232 -268 -17 -73 -7 -107 35 -122 29 -10 33 -8 98 57
l68 68 5 -49 c5 -54 20 -75 57 -79 l25 -3 1 100 c1 113 21 183 73 258 17 25
31 48 31 51 0 8 -18 6 -55 -5z"/>
<path d="M1785 1712 c-55 -34 -58 -44 -61 -177 -3 -143 -18 -189 -68 -210 -16
-7 -36 -11 -43 -8 -19 7 -16 -8 5 -23 36 -28 109 -12 149 34 32 37 45 90 48
197 4 110 2 100 21 119 20 21 31 20 51 -4 10 -11 23 -20 29 -20 15 0 -1 67
-22 90 -19 23 -74 23 -109 2z"/>
<path d="M2207 1709 c-8 -13 -32 -53 -53 -89 -37 -63 -140 -177 -150 -167 -3
2 14 34 36 70 23 36 44 81 47 99 3 18 5 35 6 38 5 22 -18 48 -44 52 -60 9
-131 -51 -78 -65 19 -5 21 -11 16 -44 -7 -44 -93 -223 -108 -223 -5 0 -3 -13
6 -30 22 -42 45 -38 98 18 50 54 95 92 109 92 9 0 4 -54 -8 -93 -10 -31 6 -74
30 -85 19 -8 31 -7 57 7 18 10 35 24 37 31 3 7 0 10 -6 6 -6 -3 -17 -3 -26 0
-31 12 -15 91 44 219 36 79 43 146 18 172 -15 14 -17 13 -31 -8z"/>
<path d="M1220 1698 c-91 -52 -166 -166 -173 -265 -4 -43 -1 -55 20 -77 22
-24 30 -28 66 -29 22 -1 67 15 67 23 0 5 9 12 20 15 36 11 21 25 -20 19 -50
-7 -70 7 -70 50 0 43 9 52 55 58 93 13 126 50 128 149 2 77 -27 95 -93 57z
m18 -75 c-13 -50 -34 -84 -65 -107 -25 -18 -25 -18 -18 4 10 32 76 140 85 140
5 0 4 -17 -2 -37z"/>
<path d="M2345 1698 c-26 -14 -65 -56 -65 -69 0 -5 10 -7 23 -4 62 16 56 -64
-14 -194 -43 -78 -45 -106 -9 -129 24 -15 40 -8 40 16 1 68 158 289 207 294
10 0 25 2 33 3 8 1 20 -3 27 -7 17 -13 23 4 14 38 -9 34 -45 56 -81 48 -14 -3
-40 -21 -58 -40 l-32 -34 2 29 c4 53 -39 77 -87 49z"/>
<path d="M2721 1696 c-58 -17 -171 -189 -173 -264 -2 -65 2 -88 16 -107 26
-36 134 -22 149 19 5 12 -1 13 -28 9 -28 -5 -34 -2 -41 18 -7 23 -9 53 -4 64
3 6 7 22 9 34 0 5 16 8 34 7 48 -3 87 13 99 43 14 32 19 151 8 170 -10 18 -27
20 -69 7z m12 -123 c-16 -31 -60 -70 -68 -61 -5 4 50 114 67 135 12 15 13 13
16 -12 2 -15 -5 -43 -15 -62z"/>
</g>
</svg>
